<svg viewBox="0 0 1112.2000732421875 400" xmlns="http://www.w3.org/2000/svg"><g><g><g><g><g><line x1="29.9375" y1="363.04444444444437" x2="24.9375" y2="363.04444444444437" style="visibility: inherit;" fill="rgb(0, 0, 0)" stroke="rgb(204, 204, 204)" stroke-width="1px"></line><line x1="29.9375" y1="327.7222222222222" x2="24.9375" y2="327.7222222222222" style="visibility: inherit;" fill="rgb(0, 0, 0)" stroke="rgb(204, 204, 204)" stroke-width="1px"></line><line x1="29.9375" y1="292.3999999999999" x2="24.9375" y2="292.3999999999999" style="visibility: inherit;" fill="rgb(0, 0, 0)" stroke="rgb(204, 204, 204)" stroke-width="1px"></line><line x1="29.9375" y1="257.0777777777777" x2="24.9375" y2="257.0777777777777" style="visibility: inherit;" fill="rgb(0, 0, 0)" stroke="rgb(204, 204, 204)" stroke-width="1px"></line><line x1="29.9375" y1="221.75555555555545" x2="24.9375" y2="221.75555555555545" style="visibility: inherit;" fill="rgb(0, 0, 0)" stroke="rgb(204, 204, 204)" stroke-width="1px"></line><line x1="29.9375" y1="186.43333333333322" x2="24.9375" y2="186.43333333333322" style="visibility: inherit;" fill="rgb(0, 0, 0)" stroke="rgb(204, 204, 204)" stroke-width="1px"></line><line x1="29.9375" y1="151.111111111111" x2="24.9375" y2="151.111111111111" style="visibility: inherit;" fill="rgb(0, 0, 0)" stroke="rgb(204, 204, 204)" stroke-width="1px"></line><line x1="29.9375" y1="115.78888888888878" x2="24.9375" y2="115.78888888888878" style="visibility: inherit;" fill="rgb(0, 0, 0)" stroke="rgb(204, 204, 204)" stroke-width="1px"></line><line x1="29.9375" y1="80.46666666666653" x2="24.9375" y2="80.46666666666653" style="visibility: inherit;" fill="rgb(0, 0, 0)" stroke="rgb(204, 204, 204)" stroke-width="1px"></line><line x1="29.9375" y1="45.1444444444443" x2="24.9375" y2="45.1444444444443" style="visibility: inherit;" fill="rgb(0, 0, 0)" stroke="rgb(204, 204, 204)" stroke-width="1px"></line><line x1="29.9375" y1="9.822222222222077" x2="24.9375" y2="9.822222222222077" style="visibility: inherit;" fill="rgb(0, 0, 0)" stroke="rgb(204, 204, 204)" stroke-width="1px"></line></g><g transform="translate(19.9375, 0)"><text x="0" y="363.04444444444437" dx="0em" dy="0.3em" style="text-anchor: end; visibility: inherit; font-family: Roboto, sans-serif; font-size: 12px; font-weight: 200;" fill="rgb(50, 49, 63)" stroke="none" stroke-width="1px">0</text><text x="0" y="327.7222222222222" dx="0em" dy="0.3em" style="text-anchor: end; visibility: inherit; font-family: Roboto, sans-serif; font-size: 12px; font-weight: 200;" fill="rgb(50, 49, 63)" stroke="none" stroke-width="1px">1</text><text x="0" y="292.3999999999999" dx="0em" dy="0.3em" style="text-anchor: end; visibility: inherit; font-family: Roboto, sans-serif; font-size: 12px; font-weight: 200;" fill="rgb(50, 49, 63)" stroke="none" stroke-width="1px">2</text><text x="0" y="257.0777777777777" dx="0em" dy="0.3em" style="text-anchor: end; visibility: inherit; font-family: Roboto, sans-serif; font-size: 12px; font-weight: 200;" fill="rgb(50, 49, 63)" stroke="none" stroke-width="1px">3</text><text x="0" y="221.75555555555545" dx="0em" dy="0.3em" style="text-anchor: end; visibility: inherit; font-family: Roboto, sans-serif; font-size: 12px; font-weight: 200;" fill="rgb(50, 49, 63)" stroke="none" stroke-width="1px">4</text><text x="0" y="186.43333333333322" dx="0em" dy="0.3em" style="text-anchor: end; visibility: inherit; font-family: Roboto, sans-serif; font-size: 12px; font-weight: 200;" fill="rgb(50, 49, 63)" stroke="none" stroke-width="1px">5</text><text x="0" y="151.111111111111" dx="0em" dy="0.3em" style="text-anchor: end; visibility: inherit; font-family: Roboto, sans-serif; font-size: 12px; font-weight: 200;" fill="rgb(50, 49, 63)" stroke="none" stroke-width="1px">6</text><text x="0" y="115.78888888888878" dx="0em" dy="0.3em" style="text-anchor: end; visibility: inherit; font-family: Roboto, sans-serif; font-size: 12px; font-weight: 200;" fill="rgb(50, 49, 63)" stroke="none" stroke-width="1px">7</text><text x="0" y="80.46666666666653" dx="0em" dy="0.3em" style="text-anchor: end; visibility: inherit; font-family: Roboto, sans-serif; font-size: 12px; font-weight: 200;" fill="rgb(50, 49, 63)" stroke="none" stroke-width="1px">8</text><text x="0" y="45.1444444444443" dx="0em" dy="0.3em" style="text-anchor: end; visibility: inherit; font-family: Roboto, sans-serif; font-size: 12px; font-weight: 200;" fill="rgb(50, 49, 63)" stroke="none" stroke-width="1px">9</text><text x="0" y="9.822222222222077" dx="0em" dy="0.3em" style="text-anchor: end; visibility: inherit; font-family: Roboto, sans-serif; font-size: 12px; font-weight: 200;" fill="rgb(50, 49, 63)" stroke="none" stroke-width="1px">10</text></g><line x1="29.9375" y1="0" x2="29.9375" y2="374" fill="rgb(0, 0, 0)" stroke="rgb(204, 204, 204)" stroke-width="1px"></line></g></g><g transform="translate(29, 0)" clip-path="url(#clip_0)"><clipPath id="clip_0"><rect width="1082" height="374"></rect></clipPath><g><g><g><line x1="7.939045776643929" y1="0" x2="7.939045776643929" y2="374" fill="rgb(0, 0, 0)" stroke="rgb(60, 60, 60)" stroke-width="1px" opacity="0.25"></line><line x1="140.73860574333895" y1="0" x2="140.73860574333895" y2="374" fill="rgb(0, 0, 0)" stroke="rgb(60, 60, 60)" stroke-width="1px" opacity="0.25"></line><line x1="273.5381657100339" y1="0" x2="273.5381657100339" y2="374" fill="rgb(0, 0, 0)" stroke="rgb(60, 60, 60)" stroke-width="1px" opacity="0.25"></line><line x1="406.337725676729" y1="0" x2="406.337725676729" y2="374" fill="rgb(0, 0, 0)" stroke="rgb(60, 60, 60)" stroke-width="1px" opacity="0.25"></line><line x1="539.137285643424" y1="0" x2="539.137285643424" y2="374" fill="rgb(0, 0, 0)" stroke="rgb(60, 60, 60)" stroke-width="1px" opacity="0.25"></line><line x1="671.936845610119" y1="0" x2="671.936845610119" y2="374" fill="rgb(0, 0, 0)" stroke="rgb(60, 60, 60)" stroke-width="1px" opacity="0.25"></line><line x1="804.7364055768139" y1="0" x2="804.7364055768139" y2="374" fill="rgb(0, 0, 0)" stroke="rgb(60, 60, 60)" stroke-width="1px" opacity="0.25"></line><line x1="937.535965543509" y1="0" x2="937.535965543509" y2="374" fill="rgb(0, 0, 0)" stroke="rgb(60, 60, 60)" stroke-width="1px" opacity="0.25"></line><line x1="1070.335525510204" y1="0" x2="1070.335525510204" y2="374" fill="rgb(0, 0, 0)" stroke="rgb(60, 60, 60)" stroke-width="1px" opacity="0.25"></line></g><g><line x1="0" y1="363.04444444444437" x2="1082.2625" y2="363.04444444444437" fill="rgb(0, 0, 0)" stroke="rgb(60, 60, 60)" stroke-width="1px" opacity="0.25"></line><line x1="0" y1="327.7222222222222" x2="1082.2625" y2="327.7222222222222" fill="rgb(0, 0, 0)" stroke="rgb(60, 60, 60)" stroke-width="1px" opacity="0.25"></line><line x1="0" y1="292.3999999999999" x2="1082.2625" y2="292.3999999999999" fill="rgb(0, 0, 0)" stroke="rgb(60, 60, 60)" stroke-width="1px" opacity="0.25"></line><line x1="0" y1="257.0777777777777" x2="1082.2625" y2="257.0777777777777" fill="rgb(0, 0, 0)" stroke="rgb(60, 60, 60)" stroke-width="1px" opacity="0.25"></line><line x1="0" y1="221.75555555555545" x2="1082.2625" y2="221.75555555555545" fill="rgb(0, 0, 0)" stroke="rgb(60, 60, 60)" stroke-width="1px" opacity="0.25"></line><line x1="0" y1="186.43333333333322" x2="1082.2625" y2="186.43333333333322" fill="rgb(0, 0, 0)" stroke="rgb(60, 60, 60)" stroke-width="1px" opacity="0.25"></line><line x1="0" y1="151.111111111111" x2="1082.2625" y2="151.111111111111" fill="rgb(0, 0, 0)" stroke="rgb(60, 60, 60)" stroke-width="1px" opacity="0.25"></line><line x1="0" y1="115.78888888888878" x2="1082.2625" y2="115.78888888888878" fill="rgb(0, 0, 0)" stroke="rgb(60, 60, 60)" stroke-width="1px" opacity="0.25"></line><line x1="0" y1="80.46666666666653" x2="1082.2625" y2="80.46666666666653" fill="rgb(0, 0, 0)" stroke="rgb(60, 60, 60)" stroke-width="1px" opacity="0.25"></line><line x1="0" y1="45.1444444444443" x2="1082.2625" y2="45.1444444444443" fill="rgb(0, 0, 0)" stroke="rgb(60, 60, 60)" stroke-width="1px" opacity="0.25"></line><line x1="0" y1="9.822222222222077" x2="1082.2625" y2="9.822222222222077" fill="rgb(0, 0, 0)" stroke="rgb(60, 60, 60)" stroke-width="1px" opacity="0.25"></line></g></g></g><g><g><line x1="0" y1="363.04444444444437" x2="1082.2625" y2="363.04444444444437" fill="rgb(0, 0, 0)" stroke="rgb(153, 153, 153)" stroke-width="1.5px"></line></g></g><g><g><line x1="7.939045776643929" y1="0" x2="7.939045776643929" y2="374" fill="rgb(0, 0, 0)" stroke="rgb(153, 153, 153)" stroke-width="1.5px"></line></g></g><g><g><g><g><g><path stroke="rgb(204, 51, 17)" stroke-width="2px" d="M21.21900177331343,257.04244127273546L34.49895776998293,248.6534162319368L47.77891376665243,265.9090417683529L61.05886976332194,268.6520268476671L74.33882575999144,258.40777888672136L87.61878175666094,254.8708462610479L100.89873775333044,247.62445470987987L114.17869374999994,220.1288466125496L127.45864974666944,195.08096798662643L140.73860574333895,188.74367853728629L154.01856174000844,179.0101835261538L167.29851773667795,190.18438713364725L180.57847373334744,179.61353774609208L193.85842973001692,166.49267865160832L207.13838572668644,168.15576611852757L220.41834172335595,152.0581601566793L233.69829772002544,123.83409972572186L246.97825371669495,119.18145342395347L260.25820971336447,90.39490270197075L273.5381657100339,83.44363451024229L286.8181217067035,77.47689181941722L300.09807770337295,73.91716872977615L313.37803370004247,61.28526876271659L326.657989696712,53.96350019609356L339.93794569338144,54.13122117791999L353.21790169005095,51.28136815846593L366.49785768672047,43.979999208128L379.77781368339,40.020674286166226L393.05776968005944,37.51022946000328L406.337725676729,35.17021009400096L419.61768167339847,33.252367552090924L432.8976376700679,34.14843087597273L446.1775936667375,35.947511374520865L459.45754966340695,33.2698502462243L472.73750566007647,33.37050876108469L486.017461656746,31.615732599933615L499.2974176534155,28.914063558200752L512.577373650085,27.393904242896063L525.8573296467545,27.359029817625817L539.137285643424,25.933187702206983L552.4172416400935,25.136942662698065L565.697197636763,24.2729935772445L578.9771536334324,24.26275565799463L592.2571096301019,23.090043374485806L605.5370656267716,22.476478616417804L618.817021623441,21.652151881815016L632.0969776201105,20.845934353139167L645.37693361678,20.60106378824921L658.6568896134494,20.219674137880265L671.936845610119,19.617182913407582L685.2168016067885,19.048290853422365L698.4967576034579,18.778383191590898L711.7767136001274,18.57547654479623L725.0566695967968,18.14910426082097L738.3366255934665,17.93374438886947L751.616581590136,17.84565220769635L764.8965375868054,17.614302072569604L778.1764935834749,17.29366899853302L791.4564495801445,17.04390186146107L804.7364055768139,16.679543267009464L818.0163615734834,16.507589813660164L831.296317570153,16.2664133623782L844.5762735668224,16.16434036175328L857.856229563492,16.114900099382925L871.1361855601615,16.067840545198273L884.4161415568309,15.828582884959875L897.6960975535004,15.704727800874759L910.9760535501699,15.516219562537064L924.2560095468394,15.444548271776465L937.535965543509,15.318462603100794" style="fill: none;" fill="none"></path></g></g></g></g><g opacity="0.2"><g><g><g><path stroke="rgb(204, 51, 17)" stroke-width="2px" d="M21.21900177331343,257.04244127273546L34.49895776998293,243.62000120745753L47.77891376665243,282.4744422833124L61.05886976332194,271.8777773009405L74.33882575999144,245.03288874891064L87.61878175666094,249.97799514399625L100.89873775333044,237.26199884944486L114.17869374999994,180.03998604880428L127.45864974666944,158.14021231333402L140.73860574333895,179.33354227807774L154.01856174000844,164.49822309282078L167.29851773667795,206.88488302230826L180.57847373334744,163.7917793220943L193.85842973001692,146.8370951387616L207.13838572668644,170.648442422019L220.41834172335595,127.92310449282317L233.69829772002544,81.50995255576225L246.97825371669495,112.20366527769286L260.25820971336447,47.219461960262585L273.5381657100339,73.01736759609634L286.8181217067035,68.52710501352934L300.09807770337295,68.57770122951918L313.37803370004247,42.33766820695653L326.657989696712,42.980934079487966L339.93794569338144,54.38280145857054L353.21790169005095,47.006600782606185L366.49785768672047,33.02796446482325L379.77781368339,34.08169298171981L393.05776968005944,33.7445645332335L406.337725676729,31.66018233829059L419.61768167339847,30.375604375203327L432.8976376700679,35.492525683508845L446.1775936667375,38.646131907568886L459.45754966340695,29.2533587455748L472.73750566007647,33.52149652904922L486.017461656746,28.98356840345582L499.2974176534155,24.86156003740086L512.577373650085,25.113665284050708L525.8573296467545,27.30671817991453L539.137285643424,23.794424533843852L552.4172416400935,23.9425751050312L565.697197636763,22.977069950103626L578.9771536334324,24.247398779127185L592.2571096301019,21.330974949730614L605.5370656267716,21.5561314794751L618.817021623441,20.415661780039322L632.0969776201105,19.63660806020086L645.37693361678,20.233757940927994L658.6568896134494,19.647589662339808L671.936845610119,18.71344607671087L685.2168016067885,18.194952763451308L698.4967576034579,18.373521698845604L711.7767136001274,18.27111657460515L725.0566695967968,17.509545834859072L738.3366255934665,17.61070458094266L751.616581590136,17.713513935936685L764.8965375868054,17.267276869879694L778.1764935834749,16.812719387478158L791.4564495801445,16.669251155853146L804.7364055768139,16.13300537533214L818.0163615734834,16.24965963363634L831.296317570153,15.90464868545517L844.5762735668224,16.011230860815957L857.856229563492,16.040739705827374L871.1361855601615,15.997251213921313L884.4161415568309,15.469696394602304L897.6960975535004,15.518945174746896L910.9760535501699,15.23345720503052L924.2560095468394,15.337041335635568L937.535965543509,15.129334100087352" style="fill: none;" fill="none"></path></g></g></g></g></g></g><g transform="translate(29, 374)" clip-path="url(#clip_1)"><clipPath id="clip_1"><rect width="1082" height="26"></rect></clipPath><g><g><line x1="7.939045776643929" y1="0" x2="7.939045776643929" y2="5" style="visibility: inherit;" fill="rgb(0, 0, 0)" stroke="rgb(204, 204, 204)" stroke-width="1px"></line><line x1="140.73860574333895" y1="0" x2="140.73860574333895" y2="5" style="visibility: inherit;" fill="rgb(0, 0, 0)" stroke="rgb(204, 204, 204)" stroke-width="1px"></line><line x1="273.5381657100339" y1="0" x2="273.5381657100339" y2="5" style="visibility: inherit;" fill="rgb(0, 0, 0)" stroke="rgb(204, 204, 204)" stroke-width="1px"></line><line x1="406.337725676729" y1="0" x2="406.337725676729" y2="5" style="visibility: inherit;" fill="rgb(0, 0, 0)" stroke="rgb(204, 204, 204)" stroke-width="1px"></line><line x1="539.137285643424" y1="0" x2="539.137285643424" y2="5" style="visibility: inherit;" fill="rgb(0, 0, 0)" stroke="rgb(204, 204, 204)" stroke-width="1px"></line><line x1="671.936845610119" y1="0" x2="671.936845610119" y2="5" style="visibility: inherit;" fill="rgb(0, 0, 0)" stroke="rgb(204, 204, 204)" stroke-width="1px"></line><line x1="804.7364055768139" y1="0" x2="804.7364055768139" y2="5" style="visibility: inherit;" fill="rgb(0, 0, 0)" stroke="rgb(204, 204, 204)" stroke-width="1px"></line><line x1="937.535965543509" y1="0" x2="937.535965543509" y2="5" style="visibility: inherit;" fill="rgb(0, 0, 0)" stroke="rgb(204, 204, 204)" stroke-width="1px"></line><line x1="1070.335525510204" y1="0" x2="1070.335525510204" y2="5" style="visibility: inherit;" fill="rgb(0, 0, 0)" stroke="rgb(204, 204, 204)" stroke-width="1px"></line></g><g transform="translate(0, 8)"><text x="7.939045776643929" y="0" dx="0em" dy="0.95em" style="text-anchor: middle; visibility: inherit; font-family: Roboto, sans-serif; font-size: 12px; font-weight: 200;" fill="rgb(50, 49, 63)" stroke="none" stroke-width="1px">0</text><text x="140.73860574333895" y="0" dx="0em" dy="0.95em" style="text-anchor: middle; visibility: inherit; font-family: Roboto, sans-serif; font-size: 12px; font-weight: 200;" fill="rgb(50, 49, 63)" stroke="none" stroke-width="1px">100k</text><text x="273.5381657100339" y="0" dx="0em" dy="0.95em" style="text-anchor: middle; visibility: inherit; font-family: Roboto, sans-serif; font-size: 12px; font-weight: 200;" fill="rgb(50, 49, 63)" stroke="none" stroke-width="1px">200k</text><text x="406.337725676729" y="0" dx="0em" dy="0.95em" style="text-anchor: middle; visibility: inherit; font-family: Roboto, sans-serif; font-size: 12px; font-weight: 200;" fill="rgb(50, 49, 63)" stroke="none" stroke-width="1px">300k</text><text x="539.137285643424" y="0" dx="0em" dy="0.95em" style="text-anchor: middle; visibility: inherit; font-family: Roboto, sans-serif; font-size: 12px; font-weight: 200;" fill="rgb(50, 49, 63)" stroke="none" stroke-width="1px">400k</text><text x="671.936845610119" y="0" dx="0em" dy="0.95em" style="text-anchor: middle; visibility: inherit; font-family: Roboto, sans-serif; font-size: 12px; font-weight: 200;" fill="rgb(50, 49, 63)" stroke="none" stroke-width="1px">500k</text><text x="804.7364055768139" y="0" dx="0em" dy="0.95em" style="text-anchor: middle; visibility: inherit; font-family: Roboto, sans-serif; font-size: 12px; font-weight: 200;" fill="rgb(50, 49, 63)" stroke="none" stroke-width="1px">600k</text><text x="937.535965543509" y="0" dx="0em" dy="0.95em" style="text-anchor: middle; visibility: inherit; font-family: Roboto, sans-serif; font-size: 12px; font-weight: 200;" fill="rgb(50, 49, 63)" stroke="none" stroke-width="1px">700k</text><text x="1070.335525510204" y="0" dx="0em" dy="0.95em" style="text-anchor: middle; visibility: hidden; font-family: Roboto, sans-serif; font-size: 12px; font-weight: 200;" fill="rgb(50, 49, 63)" stroke="none" stroke-width="1px">800k</text></g><line x1="0" y1="0" x2="1082.2625" y2="0" fill="rgb(0, 0, 0)" stroke="rgb(204, 204, 204)" stroke-width="1px"></line></g></g></g></g></svg>