<svg viewBox="0 0 1112.2000732421875 400" xmlns="http://www.w3.org/2000/svg"><g><g><g><g><g><line x1="29.9375" y1="363.5206364037116" x2="24.9375" y2="363.5206364037116" style="visibility: inherit;" fill="rgb(0, 0, 0)" stroke="rgb(204, 204, 204)" stroke-width="1px"></line><line x1="29.9375" y1="328.3723534878447" x2="24.9375" y2="328.3723534878447" style="visibility: inherit;" fill="rgb(0, 0, 0)" stroke="rgb(204, 204, 204)" stroke-width="1px"></line><line x1="29.9375" y1="293.2240705719778" x2="24.9375" y2="293.2240705719778" style="visibility: inherit;" fill="rgb(0, 0, 0)" stroke="rgb(204, 204, 204)" stroke-width="1px"></line><line x1="29.9375" y1="258.07578765611083" x2="24.9375" y2="258.07578765611083" style="visibility: inherit;" fill="rgb(0, 0, 0)" stroke="rgb(204, 204, 204)" stroke-width="1px"></line><line x1="29.9375" y1="222.927504740244" x2="24.9375" y2="222.927504740244" style="visibility: inherit;" fill="rgb(0, 0, 0)" stroke="rgb(204, 204, 204)" stroke-width="1px"></line><line x1="29.9375" y1="187.7792218243771" x2="24.9375" y2="187.7792218243771" style="visibility: inherit;" fill="rgb(0, 0, 0)" stroke="rgb(204, 204, 204)" stroke-width="1px"></line><line x1="29.9375" y1="152.6309389085102" x2="24.9375" y2="152.6309389085102" style="visibility: inherit;" fill="rgb(0, 0, 0)" stroke="rgb(204, 204, 204)" stroke-width="1px"></line><line x1="29.9375" y1="117.48265599264327" x2="24.9375" y2="117.48265599264327" style="visibility: inherit;" fill="rgb(0, 0, 0)" stroke="rgb(204, 204, 204)" stroke-width="1px"></line><line x1="29.9375" y1="82.33437307677633" x2="24.9375" y2="82.33437307677633" style="visibility: inherit;" fill="rgb(0, 0, 0)" stroke="rgb(204, 204, 204)" stroke-width="1px"></line><line x1="29.9375" y1="47.186090160909416" x2="24.9375" y2="47.186090160909416" style="visibility: inherit;" fill="rgb(0, 0, 0)" stroke="rgb(204, 204, 204)" stroke-width="1px"></line><line x1="29.9375" y1="12.037807245042513" x2="24.9375" y2="12.037807245042513" style="visibility: inherit;" fill="rgb(0, 0, 0)" stroke="rgb(204, 204, 204)" stroke-width="1px"></line></g><g transform="translate(19.9375, 0)"><text x="0" y="363.5206364037116" dx="0em" dy="0.3em" style="text-anchor: end; visibility: inherit; font-family: Roboto, sans-serif; font-size: 12px; font-weight: 200;" fill="rgb(50, 49, 63)" stroke="none" stroke-width="1px">0</text><text x="0" y="328.3723534878447" dx="0em" dy="0.3em" style="text-anchor: end; visibility: inherit; font-family: Roboto, sans-serif; font-size: 12px; font-weight: 200;" fill="rgb(50, 49, 63)" stroke="none" stroke-width="1px">1</text><text x="0" y="293.2240705719778" dx="0em" dy="0.3em" style="text-anchor: end; visibility: inherit; font-family: Roboto, sans-serif; font-size: 12px; font-weight: 200;" fill="rgb(50, 49, 63)" stroke="none" stroke-width="1px">2</text><text x="0" y="258.07578765611083" dx="0em" dy="0.3em" style="text-anchor: end; visibility: inherit; font-family: Roboto, sans-serif; font-size: 12px; font-weight: 200;" fill="rgb(50, 49, 63)" stroke="none" stroke-width="1px">3</text><text x="0" y="222.927504740244" dx="0em" dy="0.3em" style="text-anchor: end; visibility: inherit; font-family: Roboto, sans-serif; font-size: 12px; font-weight: 200;" fill="rgb(50, 49, 63)" stroke="none" stroke-width="1px">4</text><text x="0" y="187.7792218243771" dx="0em" dy="0.3em" style="text-anchor: end; visibility: inherit; font-family: Roboto, sans-serif; font-size: 12px; font-weight: 200;" fill="rgb(50, 49, 63)" stroke="none" stroke-width="1px">5</text><text x="0" y="152.6309389085102" dx="0em" dy="0.3em" style="text-anchor: end; visibility: inherit; font-family: Roboto, sans-serif; font-size: 12px; font-weight: 200;" fill="rgb(50, 49, 63)" stroke="none" stroke-width="1px">6</text><text x="0" y="117.48265599264327" dx="0em" dy="0.3em" style="text-anchor: end; visibility: inherit; font-family: Roboto, sans-serif; font-size: 12px; font-weight: 200;" fill="rgb(50, 49, 63)" stroke="none" stroke-width="1px">7</text><text x="0" y="82.33437307677633" dx="0em" dy="0.3em" style="text-anchor: end; visibility: inherit; font-family: Roboto, sans-serif; font-size: 12px; font-weight: 200;" fill="rgb(50, 49, 63)" stroke="none" stroke-width="1px">8</text><text x="0" y="47.186090160909416" dx="0em" dy="0.3em" style="text-anchor: end; visibility: inherit; font-family: Roboto, sans-serif; font-size: 12px; font-weight: 200;" fill="rgb(50, 49, 63)" stroke="none" stroke-width="1px">9</text><text x="0" y="12.037807245042513" dx="0em" dy="0.3em" style="text-anchor: end; visibility: inherit; font-family: Roboto, sans-serif; font-size: 12px; font-weight: 200;" fill="rgb(50, 49, 63)" stroke="none" stroke-width="1px">10</text></g><line x1="29.9375" y1="0" x2="29.9375" y2="374" fill="rgb(0, 0, 0)" stroke="rgb(204, 204, 204)" stroke-width="1px"></line></g></g><g transform="translate(29, 0)" clip-path="url(#clip_0)"><clipPath id="clip_0"><rect width="1082" height="374"></rect></clipPath><g><g><g><line x1="15.54204732633151" y1="0" x2="15.54204732633151" y2="374" fill="rgb(0, 0, 0)" stroke="rgb(60, 60, 60)" stroke-width="1px" opacity="0.25"></line><line x1="92.80217792604881" y1="0" x2="92.80217792604881" y2="374" fill="rgb(0, 0, 0)" stroke="rgb(60, 60, 60)" stroke-width="1px" opacity="0.25"></line><line x1="170.0623085257661" y1="0" x2="170.0623085257661" y2="374" fill="rgb(0, 0, 0)" stroke="rgb(60, 60, 60)" stroke-width="1px" opacity="0.25"></line><line x1="247.3224391254834" y1="0" x2="247.3224391254834" y2="374" fill="rgb(0, 0, 0)" stroke="rgb(60, 60, 60)" stroke-width="1px" opacity="0.25"></line><line x1="324.58256972520076" y1="0" x2="324.58256972520076" y2="374" fill="rgb(0, 0, 0)" stroke="rgb(60, 60, 60)" stroke-width="1px" opacity="0.25"></line><line x1="401.84270032491804" y1="0" x2="401.84270032491804" y2="374" fill="rgb(0, 0, 0)" stroke="rgb(60, 60, 60)" stroke-width="1px" opacity="0.25"></line><line x1="479.10283092463527" y1="0" x2="479.10283092463527" y2="374" fill="rgb(0, 0, 0)" stroke="rgb(60, 60, 60)" stroke-width="1px" opacity="0.25"></line><line x1="556.3629615243526" y1="0" x2="556.3629615243526" y2="374" fill="rgb(0, 0, 0)" stroke="rgb(60, 60, 60)" stroke-width="1px" opacity="0.25"></line><line x1="633.62309212407" y1="0" x2="633.62309212407" y2="374" fill="rgb(0, 0, 0)" stroke="rgb(60, 60, 60)" stroke-width="1px" opacity="0.25"></line><line x1="710.8832227237873" y1="0" x2="710.8832227237873" y2="374" fill="rgb(0, 0, 0)" stroke="rgb(60, 60, 60)" stroke-width="1px" opacity="0.25"></line><line x1="788.1433533235046" y1="0" x2="788.1433533235046" y2="374" fill="rgb(0, 0, 0)" stroke="rgb(60, 60, 60)" stroke-width="1px" opacity="0.25"></line><line x1="865.403483923222" y1="0" x2="865.403483923222" y2="374" fill="rgb(0, 0, 0)" stroke="rgb(60, 60, 60)" stroke-width="1px" opacity="0.25"></line><line x1="942.6636145229393" y1="0" x2="942.6636145229393" y2="374" fill="rgb(0, 0, 0)" stroke="rgb(60, 60, 60)" stroke-width="1px" opacity="0.25"></line><line x1="1019.9237451226566" y1="0" x2="1019.9237451226566" y2="374" fill="rgb(0, 0, 0)" stroke="rgb(60, 60, 60)" stroke-width="1px" opacity="0.25"></line></g><g><line x1="0" y1="363.5206364037116" x2="1082.2625" y2="363.5206364037116" fill="rgb(0, 0, 0)" stroke="rgb(60, 60, 60)" stroke-width="1px" opacity="0.25"></line><line x1="0" y1="328.3723534878447" x2="1082.2625" y2="328.3723534878447" fill="rgb(0, 0, 0)" stroke="rgb(60, 60, 60)" stroke-width="1px" opacity="0.25"></line><line x1="0" y1="293.2240705719778" x2="1082.2625" y2="293.2240705719778" fill="rgb(0, 0, 0)" stroke="rgb(60, 60, 60)" stroke-width="1px" opacity="0.25"></line><line x1="0" y1="258.07578765611083" x2="1082.2625" y2="258.07578765611083" fill="rgb(0, 0, 0)" stroke="rgb(60, 60, 60)" stroke-width="1px" opacity="0.25"></line><line x1="0" y1="222.927504740244" x2="1082.2625" y2="222.927504740244" fill="rgb(0, 0, 0)" stroke="rgb(60, 60, 60)" stroke-width="1px" opacity="0.25"></line><line x1="0" y1="187.7792218243771" x2="1082.2625" y2="187.7792218243771" fill="rgb(0, 0, 0)" stroke="rgb(60, 60, 60)" stroke-width="1px" opacity="0.25"></line><line x1="0" y1="152.6309389085102" x2="1082.2625" y2="152.6309389085102" fill="rgb(0, 0, 0)" stroke="rgb(60, 60, 60)" stroke-width="1px" opacity="0.25"></line><line x1="0" y1="117.48265599264327" x2="1082.2625" y2="117.48265599264327" fill="rgb(0, 0, 0)" stroke="rgb(60, 60, 60)" stroke-width="1px" opacity="0.25"></line><line x1="0" y1="82.33437307677633" x2="1082.2625" y2="82.33437307677633" fill="rgb(0, 0, 0)" stroke="rgb(60, 60, 60)" stroke-width="1px" opacity="0.25"></line><line x1="0" y1="47.186090160909416" x2="1082.2625" y2="47.186090160909416" fill="rgb(0, 0, 0)" stroke="rgb(60, 60, 60)" stroke-width="1px" opacity="0.25"></line><line x1="0" y1="12.037807245042513" x2="1082.2625" y2="12.037807245042513" fill="rgb(0, 0, 0)" stroke="rgb(60, 60, 60)" stroke-width="1px" opacity="0.25"></line></g></g></g><g><g><line x1="0" y1="363.5206364037116" x2="1082.2625" y2="363.5206364037116" fill="rgb(0, 0, 0)" stroke="rgb(153, 153, 153)" stroke-width="1.5px"></line></g></g><g><g><line x1="15.54204732633151" y1="0" x2="15.54204732633151" y2="374" fill="rgb(0, 0, 0)" stroke="rgb(153, 153, 153)" stroke-width="1.5px"></line></g></g><g><g><g><g><g><path stroke="rgb(0, 119, 187)" stroke-width="2px" d="M23.268060386303237,359.2296769979092L30.994073446274967,358.3738521011605L38.7200865062467,358.8309700781759L46.446099566218436,358.77484261796985L54.172112626190156,359.9011558858289L61.89812568616188,359.8158785015598L69.62413874613361,360.9901992521558L77.35015180610534,360.41011467802394L85.07616486607708,356.8076109851592L92.80217792604881,356.94865725364576L100.52819098602053,355.3715764531813L108.25420404599227,353.930661616845L115.980217105964,345.4737144098239L123.70623016593574,340.8044596852822L131.43224322590746,337.3721016945977L139.1582562858792,333.0356504892575L146.8842693458509,325.5380470603614L154.61028240582263,318.654658483311L162.33629546579436,316.6617536259929L170.0623085257661,310.91096084191275L177.78832158573783,302.56074254100656L185.51433464570957,294.5941139696093L193.2403477056813,288.16464752291074L200.966360765653,282.87516582757206L208.69237382562474,277.95639234933805L216.41838688559648,274.4766195352516L224.1443999455682,267.0634998547991L231.87041300553994,259.67797388360464L239.59642606551168,252.9581986779457L247.3224391254834,244.44855963585383L255.04845218545515,240.62051361577107L262.7744652454269,235.83497588050525L270.5004783053986,234.30788993609977L278.22649136537035,228.09739328942206L285.9525044253421,226.9203964877806L293.6785174853138,219.97875494414288L301.4045305452855,210.89903866458715L309.1305436052573,211.59586340715177L316.856556665229,207.03895118076747L324.58256972520076,208.65738446779685L332.30858278517246,203.79346799007766L340.0345958451442,199.81155485556255L347.76060890511593,198.05651850202037L355.48662196508764,195.5129957170828L363.2126350250594,191.4793972357977L370.9386480850311,192.85851728371554L378.66466114500287,189.92924037071631L386.3906742049746,183.28278678541668L394.11668726494634,184.86851541179036L401.84270032491804,173.94044597597033L409.5687133848897,179.01738910649325L417.2947264448615,177.12603671001472L425.02073950483316,174.49864605833986L432.7467525648049,172.93338724023306L440.4727656247766,175.35901124723344L448.1987786847484,174.94020118249017L455.9247917447201,173.4907019947954L463.6508048046918,171.28358741635574L471.37681786466356,171.17393651332665L479.10283092463527,173.07884126672533L486.82884398460703,171.27655473267697L494.55485704457874,171.55814683326184L502.2808701045505,170.5894394992868L510.0068831645222,171.19119675307869L517.732896224494,163.3511370490514L525.4589092844657,164.3360577825468L533.1849223444374,163.96744617032985L540.9109354044092,163.5817428589285L548.6369484643809,163.14990470430018L556.3629615243526,166.88194280774724L564.0889745843243,166.1483291996354L571.8149876442961,162.49624641186568L579.5410007042677,161.21360366519747L587.2670137642396,161.88903903415354L594.9930268242113,158.1757563874973L602.7190398841831,163.06021770693422L610.4450529441547,167.08380116931806L618.1710660041265,162.64436859670002L625.8970790640982,158.3666466021276L633.62309212407,161.31723351807082L641.3491051840416,164.35948921676376L649.0751182440134,161.58169321167972L656.8011313039851,164.95316767147165L664.5271443639568,163.4401198545159L672.2531574239285,164.48166773022038L679.9791704839004,159.7463237557034L687.7051835438721,165.17518209749787L695.4311966038438,162.57418402448022L703.1572096638155,161.07229883838778L710.8832227237873,162.23599392718012L718.6092357837589,154.3823099704993L726.3352488437307,157.64306302485727L734.0612619037024,160.1040111904546L741.7872749636742,161.39162106304406L749.5132880236458,159.79219007560104L757.2393010836176,160.30761995326256L764.9653141435894,157.35833021253038L772.6913272035611,156.95207570126058L780.4173402635328,157.61018569353817L788.1433533235046,156.97787776697567L795.8693663834763,177.55615815904346L803.595379443448,167.59878124839778L811.3213925034198,164.58480927876673L819.0474055633915,158.32863523673942L826.7734186233632,156.61798241043303L834.499431683335,156.358012442362L842.2254447433068,158.4730114562684L849.9514578032785,157.2749847119903L857.6774708632502,157.14119348167958L865.403483923222,156.44584658607548L873.1294969831936,155.62092110212217L880.8555100431654,154.95820484226644L888.5815231031371,156.70068723977815L896.3075361631089,152.33453790784586L904.0335492230805,152.63586954017015L911.7595622830523,154.49704026361152L919.485575343024,155.9940876002773L927.2115884029959,156.10668060214797L934.9376014629675,163.9261219267989L942.6636145229393,159.15879389030326L950.389627582911,158.6456092805462L958.1156406428827,159.87961919009356L965.8416537028544,162.6414831412734L973.5676667628262,163.51073367887463L981.2936798227979,157.72651895134538L989.0196928827696,159.52903032855733L996.7457059427413,156.33356428945856L1004.4717190027131,161.19964958929046L1012.1977320626847,162.08143136454956L1019.9237451226566,160.58801671180427L1027.6497581826284,162.02338550137893" style="fill: none;" fill="none"></path></g></g></g></g><g opacity="0.2"><g><g><g><path stroke="rgb(0, 119, 187)" stroke-width="2px" d="M23.268060386303237,359.2296769979092L30.994073446274967,357.8603571631113L38.7200865062467,359.26980333611056L46.446099566218436,358.70883672476754L54.172112626190156,361.37167048834584L61.89812568616188,359.6979091792571L69.62413874613361,362.66949671464016L77.35015180610534,359.5643458001279L85.07616486607708,351.494617788501L92.80217792604881,357.15809452425185L100.52819098602053,353.0202592592719L108.25420404599227,351.77713075724904L115.980217105964,332.8159069992373L123.70623016593574,333.8097251545557L131.43224322590746,332.22759931654315L139.1582562858792,326.5340320826119L146.8842693458509,314.2948146515146L154.61028240582263,308.33132330934944L162.33629546579436,313.6726999390121L170.0623085257661,302.28529731103197L177.78832158573783,290.0358730354639L185.51433464570957,282.64443325782L193.2403477056813,278.5205747914622L200.966360765653,274.94100594351744L208.69237382562474,270.5782670925238L216.41838688559648,269.25697515376334L224.1443999455682,255.94383930226172L231.87041300553994,248.5996962653351L239.59642606551168,242.87854205931995L247.3224391254834,231.6841057758642L255.04845218545515,234.87844585506866L262.7744652454269,228.65667022976825L270.5004783053986,232.01726120179498L278.22649136537035,218.78164876425066L285.9525044253421,225.15490133590188L293.6785174853138,209.5662928076838L301.4045305452855,197.27946438573173L309.1305436052573,212.64110051453L316.856556665229,200.20358286657205L324.58256972520076,211.08503439293233L332.30858278517246,196.49759328325172L340.0345958451442,193.83868515858046L347.76060890511593,195.423963972974L355.48662196508764,191.69771154077802L363.2126350250594,185.42899951491827L370.9386480850311,194.92719735537725L378.66466114500287,185.53532500149157L386.3906742049746,173.31310640784028L394.11668726494634,187.24710835129744L401.84270032491804,157.54834182246123L409.5687133848897,186.63280380221602L417.2947264448615,174.28900811531074L425.02073950483316,170.55756008083893L432.7467525648049,170.58549901307694L440.4727656247766,178.99744725773022L448.1987786847484,174.3119860853757L455.9247917447201,171.316453213254L463.6508048046918,167.97291554869705L471.37681786466356,171.00946015878299L479.10283092463527,175.93619839682316L486.82884398460703,168.57312493160447L494.55485704457874,171.98053498413918L502.2808701045505,169.13637849832426L510.0068831645222,172.0938326337665L517.732896224494,151.59104749301056L525.4589092844657,165.81343888278982L533.1849223444374,163.4145287520045L540.9109354044092,163.00318789182643L548.6369484643809,162.5021474723576L556.3629615243526,172.4799999629179L564.0889745843243,165.04790878746763L571.8149876442961,157.01812223021116L579.5410007042677,159.28963954519514L587.2670137642396,162.90219208758762L594.9930268242113,152.60583241751286L602.7190398841831,170.38690968608964L610.4450529441547,173.11917636289385L618.1710660041265,155.98521973777287L625.8970790640982,151.95006361026898L633.62309212407,165.74311389198564L641.3491051840416,168.92287276480317L649.0751182440134,157.4149992040537L656.8011313039851,170.0103793611595L664.5271443639568,161.17054812908228L672.2531574239285,166.04398954377706L679.9791704839004,152.64330779392807L687.7051835438721,173.31846961018954L695.4311966038438,158.67268691495377L703.1572096638155,158.81947105924908L710.8832227237873,163.9815365603687L718.6092357837589,142.6017840354781L726.3352488437307,162.53419260639424L734.0612619037024,163.79543343885067L741.7872749636742,163.3230358719282L749.5132880236458,157.39304359443653L757.2393010836176,161.0807647697548L764.9653141435894,152.93439560143213L772.6913272035611,156.3426939343559L780.4173402635328,158.5973506819545L788.1433533235046,156.02941587713195L795.8693663834763,208.42357874714517L803.595379443448,152.66271588242932L811.3213925034198,160.06385132432015L819.0474055633915,148.9443741736984L826.7734186233632,154.05200317097348L834.499431683335,155.96805749025535L842.2254447433068,161.645509977128L849.9514578032785,155.4779445955731L857.6774708632502,156.94050663621348L865.403483923222,155.4028262426693L873.1294969831936,154.38353287619216L880.8555100431654,153.96413045248292L888.5815231031371,159.31441083604562L896.3075361631089,145.78531390994743L904.0335492230805,153.0878669886566L911.7595622830523,157.28879634877353L919.485575343024,158.23965860527605L927.2115884029959,156.27557010495394L934.9376014629675,175.6552839137753L942.6636145229393,152.00780183555983L950.389627582911,157.8758323659106L958.1156406428827,161.7306340544146L965.8416537028544,166.78427906804322L973.5676667628262,164.81460948527643L981.2936798227979,149.05019686005153L989.0196928827696,162.23279739437524L996.7457059427413,151.54036523081038L1004.4717190027131,168.49877753903837L1012.1977320626847,163.40410402743814L1019.9237451226566,158.3478947326863L1027.6497581826284,164.17643868574092" style="fill: none;" fill="none"></path></g></g></g></g></g></g><g transform="translate(29, 374)" clip-path="url(#clip_1)"><clipPath id="clip_1"><rect width="1082" height="26"></rect></clipPath><g><g><line x1="15.54204732633151" y1="0" x2="15.54204732633151" y2="5" style="visibility: inherit;" fill="rgb(0, 0, 0)" stroke="rgb(204, 204, 204)" stroke-width="1px"></line><line x1="92.80217792604881" y1="0" x2="92.80217792604881" y2="5" style="visibility: inherit;" fill="rgb(0, 0, 0)" stroke="rgb(204, 204, 204)" stroke-width="1px"></line><line x1="170.0623085257661" y1="0" x2="170.0623085257661" y2="5" style="visibility: inherit;" fill="rgb(0, 0, 0)" stroke="rgb(204, 204, 204)" stroke-width="1px"></line><line x1="247.3224391254834" y1="0" x2="247.3224391254834" y2="5" style="visibility: inherit;" fill="rgb(0, 0, 0)" stroke="rgb(204, 204, 204)" stroke-width="1px"></line><line x1="324.58256972520076" y1="0" x2="324.58256972520076" y2="5" style="visibility: inherit;" fill="rgb(0, 0, 0)" stroke="rgb(204, 204, 204)" stroke-width="1px"></line><line x1="401.84270032491804" y1="0" x2="401.84270032491804" y2="5" style="visibility: inherit;" fill="rgb(0, 0, 0)" stroke="rgb(204, 204, 204)" stroke-width="1px"></line><line x1="479.10283092463527" y1="0" x2="479.10283092463527" y2="5" style="visibility: inherit;" fill="rgb(0, 0, 0)" stroke="rgb(204, 204, 204)" stroke-width="1px"></line><line x1="556.3629615243526" y1="0" x2="556.3629615243526" y2="5" style="visibility: inherit;" fill="rgb(0, 0, 0)" stroke="rgb(204, 204, 204)" stroke-width="1px"></line><line x1="633.62309212407" y1="0" x2="633.62309212407" y2="5" style="visibility: inherit;" fill="rgb(0, 0, 0)" stroke="rgb(204, 204, 204)" stroke-width="1px"></line><line x1="710.8832227237873" y1="0" x2="710.8832227237873" y2="5" style="visibility: inherit;" fill="rgb(0, 0, 0)" stroke="rgb(204, 204, 204)" stroke-width="1px"></line><line x1="788.1433533235046" y1="0" x2="788.1433533235046" y2="5" style="visibility: inherit;" fill="rgb(0, 0, 0)" stroke="rgb(204, 204, 204)" stroke-width="1px"></line><line x1="865.403483923222" y1="0" x2="865.403483923222" y2="5" style="visibility: inherit;" fill="rgb(0, 0, 0)" stroke="rgb(204, 204, 204)" stroke-width="1px"></line><line x1="942.6636145229393" y1="0" x2="942.6636145229393" y2="5" style="visibility: inherit;" fill="rgb(0, 0, 0)" stroke="rgb(204, 204, 204)" stroke-width="1px"></line><line x1="1019.9237451226566" y1="0" x2="1019.9237451226566" y2="5" style="visibility: inherit;" fill="rgb(0, 0, 0)" stroke="rgb(204, 204, 204)" stroke-width="1px"></line></g><g transform="translate(0, 8)"><text x="15.54204732633151" y="0" dx="0em" dy="0.95em" style="text-anchor: middle; visibility: inherit; font-family: Roboto, sans-serif; font-size: 12px; font-weight: 200;" fill="rgb(50, 49, 63)" stroke="none" stroke-width="1px">0</text><text x="92.80217792604881" y="0" dx="0em" dy="0.95em" style="text-anchor: middle; visibility: inherit; font-family: Roboto, sans-serif; font-size: 12px; font-weight: 200;" fill="rgb(50, 49, 63)" stroke="none" stroke-width="1px">100k</text><text x="170.0623085257661" y="0" dx="0em" dy="0.95em" style="text-anchor: middle; visibility: inherit; font-family: Roboto, sans-serif; font-size: 12px; font-weight: 200;" fill="rgb(50, 49, 63)" stroke="none" stroke-width="1px">200k</text><text x="247.3224391254834" y="0" dx="0em" dy="0.95em" style="text-anchor: middle; visibility: inherit; font-family: Roboto, sans-serif; font-size: 12px; font-weight: 200;" fill="rgb(50, 49, 63)" stroke="none" stroke-width="1px">300k</text><text x="324.58256972520076" y="0" dx="0em" dy="0.95em" style="text-anchor: middle; visibility: inherit; font-family: Roboto, sans-serif; font-size: 12px; font-weight: 200;" fill="rgb(50, 49, 63)" stroke="none" stroke-width="1px">400k</text><text x="401.84270032491804" y="0" dx="0em" dy="0.95em" style="text-anchor: middle; visibility: inherit; font-family: Roboto, sans-serif; font-size: 12px; font-weight: 200;" fill="rgb(50, 49, 63)" stroke="none" stroke-width="1px">500k</text><text x="479.10283092463527" y="0" dx="0em" dy="0.95em" style="text-anchor: middle; visibility: inherit; font-family: Roboto, sans-serif; font-size: 12px; font-weight: 200;" fill="rgb(50, 49, 63)" stroke="none" stroke-width="1px">600k</text><text x="556.3629615243526" y="0" dx="0em" dy="0.95em" style="text-anchor: middle; visibility: inherit; font-family: Roboto, sans-serif; font-size: 12px; font-weight: 200;" fill="rgb(50, 49, 63)" stroke="none" stroke-width="1px">700k</text><text x="633.62309212407" y="0" dx="0em" dy="0.95em" style="text-anchor: middle; visibility: inherit; font-family: Roboto, sans-serif; font-size: 12px; font-weight: 200;" fill="rgb(50, 49, 63)" stroke="none" stroke-width="1px">800k</text><text x="710.8832227237873" y="0" dx="0em" dy="0.95em" style="text-anchor: middle; visibility: inherit; font-family: Roboto, sans-serif; font-size: 12px; font-weight: 200;" fill="rgb(50, 49, 63)" stroke="none" stroke-width="1px">900k</text><text x="788.1433533235046" y="0" dx="0em" dy="0.95em" style="text-anchor: middle; visibility: inherit; font-family: Roboto, sans-serif; font-size: 12px; font-weight: 200;" fill="rgb(50, 49, 63)" stroke="none" stroke-width="1px">1M</text><text x="865.403483923222" y="0" dx="0em" dy="0.95em" style="text-anchor: middle; visibility: inherit; font-family: Roboto, sans-serif; font-size: 12px; font-weight: 200;" fill="rgb(50, 49, 63)" stroke="none" stroke-width="1px">1.1M</text><text x="942.6636145229393" y="0" dx="0em" dy="0.95em" style="text-anchor: middle; visibility: inherit; font-family: Roboto, sans-serif; font-size: 12px; font-weight: 200;" fill="rgb(50, 49, 63)" stroke="none" stroke-width="1px">1.2M</text><text x="1019.9237451226566" y="0" dx="0em" dy="0.95em" style="text-anchor: middle; visibility: inherit; font-family: Roboto, sans-serif; font-size: 12px; font-weight: 200;" fill="rgb(50, 49, 63)" stroke="none" stroke-width="1px">1.3M</text></g><line x1="0" y1="0" x2="1082.2625" y2="0" fill="rgb(0, 0, 0)" stroke="rgb(204, 204, 204)" stroke-width="1px"></line></g></g></g></g></svg>