<svg viewBox="0 0 1112.2000732421875 400" xmlns="http://www.w3.org/2000/svg"><g><g><g><g><g><line x1="39.90625" y1="364.6019077853546" x2="34.90625" y2="364.6019077853546" style="visibility: inherit;" fill="rgb(0, 0, 0)" stroke="rgb(204, 204, 204)" stroke-width="1px"></line><line x1="39.90625" y1="329.8024235974633" x2="34.90625" y2="329.8024235974633" style="visibility: inherit;" fill="rgb(0, 0, 0)" stroke="rgb(204, 204, 204)" stroke-width="1px"></line><line x1="39.90625" y1="295.0029394095719" x2="34.90625" y2="295.0029394095719" style="visibility: inherit;" fill="rgb(0, 0, 0)" stroke="rgb(204, 204, 204)" stroke-width="1px"></line><line x1="39.90625" y1="260.2034552216806" x2="34.90625" y2="260.2034552216806" style="visibility: inherit;" fill="rgb(0, 0, 0)" stroke="rgb(204, 204, 204)" stroke-width="1px"></line><line x1="39.90625" y1="225.40397103378928" x2="34.90625" y2="225.40397103378928" style="visibility: inherit;" fill="rgb(0, 0, 0)" stroke="rgb(204, 204, 204)" stroke-width="1px"></line><line x1="39.90625" y1="190.60448684589792" x2="34.90625" y2="190.60448684589792" style="visibility: inherit;" fill="rgb(0, 0, 0)" stroke="rgb(204, 204, 204)" stroke-width="1px"></line><line x1="39.90625" y1="155.8050026580066" x2="34.90625" y2="155.8050026580066" style="visibility: inherit;" fill="rgb(0, 0, 0)" stroke="rgb(204, 204, 204)" stroke-width="1px"></line><line x1="39.90625" y1="121.00551847011526" x2="34.90625" y2="121.00551847011526" style="visibility: inherit;" fill="rgb(0, 0, 0)" stroke="rgb(204, 204, 204)" stroke-width="1px"></line><line x1="39.90625" y1="86.2060342822239" x2="34.90625" y2="86.2060342822239" style="visibility: inherit;" fill="rgb(0, 0, 0)" stroke="rgb(204, 204, 204)" stroke-width="1px"></line><line x1="39.90625" y1="51.406550094332566" x2="34.90625" y2="51.406550094332566" style="visibility: inherit;" fill="rgb(0, 0, 0)" stroke="rgb(204, 204, 204)" stroke-width="1px"></line><line x1="39.90625" y1="16.60706590644124" x2="34.90625" y2="16.60706590644124" style="visibility: inherit;" fill="rgb(0, 0, 0)" stroke="rgb(204, 204, 204)" stroke-width="1px"></line></g><g transform="translate(29.90625, 0)"><text x="0" y="364.6019077853546" dx="0em" dy="0.3em" style="text-anchor: end; visibility: inherit; font-family: Roboto, sans-serif; font-size: 12px; font-weight: 200;" fill="rgb(50, 49, 63)" stroke="none" stroke-width="1px">0</text><text x="0" y="329.8024235974633" dx="0em" dy="0.3em" style="text-anchor: end; visibility: inherit; font-family: Roboto, sans-serif; font-size: 12px; font-weight: 200;" fill="rgb(50, 49, 63)" stroke="none" stroke-width="1px">20</text><text x="0" y="295.0029394095719" dx="0em" dy="0.3em" style="text-anchor: end; visibility: inherit; font-family: Roboto, sans-serif; font-size: 12px; font-weight: 200;" fill="rgb(50, 49, 63)" stroke="none" stroke-width="1px">40</text><text x="0" y="260.2034552216806" dx="0em" dy="0.3em" style="text-anchor: end; visibility: inherit; font-family: Roboto, sans-serif; font-size: 12px; font-weight: 200;" fill="rgb(50, 49, 63)" stroke="none" stroke-width="1px">60</text><text x="0" y="225.40397103378928" dx="0em" dy="0.3em" style="text-anchor: end; visibility: inherit; font-family: Roboto, sans-serif; font-size: 12px; font-weight: 200;" fill="rgb(50, 49, 63)" stroke="none" stroke-width="1px">80</text><text x="0" y="190.60448684589792" dx="0em" dy="0.3em" style="text-anchor: end; visibility: inherit; font-family: Roboto, sans-serif; font-size: 12px; font-weight: 200;" fill="rgb(50, 49, 63)" stroke="none" stroke-width="1px">100</text><text x="0" y="155.8050026580066" dx="0em" dy="0.3em" style="text-anchor: end; visibility: inherit; font-family: Roboto, sans-serif; font-size: 12px; font-weight: 200;" fill="rgb(50, 49, 63)" stroke="none" stroke-width="1px">120</text><text x="0" y="121.00551847011526" dx="0em" dy="0.3em" style="text-anchor: end; visibility: inherit; font-family: Roboto, sans-serif; font-size: 12px; font-weight: 200;" fill="rgb(50, 49, 63)" stroke="none" stroke-width="1px">140</text><text x="0" y="86.2060342822239" dx="0em" dy="0.3em" style="text-anchor: end; visibility: inherit; font-family: Roboto, sans-serif; font-size: 12px; font-weight: 200;" fill="rgb(50, 49, 63)" stroke="none" stroke-width="1px">160</text><text x="0" y="51.406550094332566" dx="0em" dy="0.3em" style="text-anchor: end; visibility: inherit; font-family: Roboto, sans-serif; font-size: 12px; font-weight: 200;" fill="rgb(50, 49, 63)" stroke="none" stroke-width="1px">180</text><text x="0" y="16.60706590644124" dx="0em" dy="0.3em" style="text-anchor: end; visibility: inherit; font-family: Roboto, sans-serif; font-size: 12px; font-weight: 200;" fill="rgb(50, 49, 63)" stroke="none" stroke-width="1px">200</text></g><line x1="39.90625" y1="0" x2="39.90625" y2="374" fill="rgb(0, 0, 0)" stroke="rgb(204, 204, 204)" stroke-width="1px"></line></g></g><g transform="translate(39, 0)" clip-path="url(#clip_0)"><clipPath id="clip_0"><rect width="1072" height="374"></rect></clipPath><g><g><g><line x1="7.500249590545349" y1="0" x2="7.500249590545349" y2="374" fill="rgb(0, 0, 0)" stroke="rgb(60, 60, 60)" stroke-width="1px" opacity="0.25"></line><line x1="85.19154814190235" y1="0" x2="85.19154814190235" y2="374" fill="rgb(0, 0, 0)" stroke="rgb(60, 60, 60)" stroke-width="1px" opacity="0.25"></line><line x1="162.88284669325935" y1="0" x2="162.88284669325935" y2="374" fill="rgb(0, 0, 0)" stroke="rgb(60, 60, 60)" stroke-width="1px" opacity="0.25"></line><line x1="240.57414524461635" y1="0" x2="240.57414524461635" y2="374" fill="rgb(0, 0, 0)" stroke="rgb(60, 60, 60)" stroke-width="1px" opacity="0.25"></line><line x1="318.26544379597334" y1="0" x2="318.26544379597334" y2="374" fill="rgb(0, 0, 0)" stroke="rgb(60, 60, 60)" stroke-width="1px" opacity="0.25"></line><line x1="395.95674234733036" y1="0" x2="395.95674234733036" y2="374" fill="rgb(0, 0, 0)" stroke="rgb(60, 60, 60)" stroke-width="1px" opacity="0.25"></line><line x1="473.64804089868727" y1="0" x2="473.64804089868727" y2="374" fill="rgb(0, 0, 0)" stroke="rgb(60, 60, 60)" stroke-width="1px" opacity="0.25"></line><line x1="551.3393394500442" y1="0" x2="551.3393394500442" y2="374" fill="rgb(0, 0, 0)" stroke="rgb(60, 60, 60)" stroke-width="1px" opacity="0.25"></line><line x1="629.0306380014013" y1="0" x2="629.0306380014013" y2="374" fill="rgb(0, 0, 0)" stroke="rgb(60, 60, 60)" stroke-width="1px" opacity="0.25"></line><line x1="706.7219365527582" y1="0" x2="706.7219365527582" y2="374" fill="rgb(0, 0, 0)" stroke="rgb(60, 60, 60)" stroke-width="1px" opacity="0.25"></line><line x1="784.4132351041152" y1="0" x2="784.4132351041152" y2="374" fill="rgb(0, 0, 0)" stroke="rgb(60, 60, 60)" stroke-width="1px" opacity="0.25"></line><line x1="862.1045336554723" y1="0" x2="862.1045336554723" y2="374" fill="rgb(0, 0, 0)" stroke="rgb(60, 60, 60)" stroke-width="1px" opacity="0.25"></line><line x1="939.7958322068293" y1="0" x2="939.7958322068293" y2="374" fill="rgb(0, 0, 0)" stroke="rgb(60, 60, 60)" stroke-width="1px" opacity="0.25"></line><line x1="1017.4871307581863" y1="0" x2="1017.4871307581863" y2="374" fill="rgb(0, 0, 0)" stroke="rgb(60, 60, 60)" stroke-width="1px" opacity="0.25"></line></g><g><line x1="0" y1="364.6019077853546" x2="1072.29375" y2="364.6019077853546" fill="rgb(0, 0, 0)" stroke="rgb(60, 60, 60)" stroke-width="1px" opacity="0.25"></line><line x1="0" y1="329.8024235974633" x2="1072.29375" y2="329.8024235974633" fill="rgb(0, 0, 0)" stroke="rgb(60, 60, 60)" stroke-width="1px" opacity="0.25"></line><line x1="0" y1="295.0029394095719" x2="1072.29375" y2="295.0029394095719" fill="rgb(0, 0, 0)" stroke="rgb(60, 60, 60)" stroke-width="1px" opacity="0.25"></line><line x1="0" y1="260.2034552216806" x2="1072.29375" y2="260.2034552216806" fill="rgb(0, 0, 0)" stroke="rgb(60, 60, 60)" stroke-width="1px" opacity="0.25"></line><line x1="0" y1="225.40397103378928" x2="1072.29375" y2="225.40397103378928" fill="rgb(0, 0, 0)" stroke="rgb(60, 60, 60)" stroke-width="1px" opacity="0.25"></line><line x1="0" y1="190.60448684589792" x2="1072.29375" y2="190.60448684589792" fill="rgb(0, 0, 0)" stroke="rgb(60, 60, 60)" stroke-width="1px" opacity="0.25"></line><line x1="0" y1="155.8050026580066" x2="1072.29375" y2="155.8050026580066" fill="rgb(0, 0, 0)" stroke="rgb(60, 60, 60)" stroke-width="1px" opacity="0.25"></line><line x1="0" y1="121.00551847011526" x2="1072.29375" y2="121.00551847011526" fill="rgb(0, 0, 0)" stroke="rgb(60, 60, 60)" stroke-width="1px" opacity="0.25"></line><line x1="0" y1="86.2060342822239" x2="1072.29375" y2="86.2060342822239" fill="rgb(0, 0, 0)" stroke="rgb(60, 60, 60)" stroke-width="1px" opacity="0.25"></line><line x1="0" y1="51.406550094332566" x2="1072.29375" y2="51.406550094332566" fill="rgb(0, 0, 0)" stroke="rgb(60, 60, 60)" stroke-width="1px" opacity="0.25"></line><line x1="0" y1="16.60706590644124" x2="1072.29375" y2="16.60706590644124" fill="rgb(0, 0, 0)" stroke="rgb(60, 60, 60)" stroke-width="1px" opacity="0.25"></line></g></g></g><g><g><line x1="0" y1="364.6019077853546" x2="1072.29375" y2="364.6019077853546" fill="rgb(0, 0, 0)" stroke="rgb(153, 153, 153)" stroke-width="1.5px"></line></g></g><g><g><line x1="7.500249590545349" y1="0" x2="7.500249590545349" y2="374" fill="rgb(0, 0, 0)" stroke="rgb(153, 153, 153)" stroke-width="1.5px"></line></g></g><g><g><g><g><g><path stroke="rgb(0, 119, 187)" stroke-width="2px" d="M15.269379445681048,18.34704011583579L23.03850930081675,18.34704011583575L30.807639155952447,18.34704011583575L38.576769011088146,18.34704011583579L46.34589886622385,18.34704011583579L54.11502872135954,22.864230309775802L61.884158576495246,21.00531654380063L69.65328843163094,19.92384134209074L77.42241828676664,23.241497149385072L85.19154814190235,26.667648709706405L92.96067799703805,23.42111444732394L100.72980785217374,39.79351594160646L108.49893770730945,32.860109375271L116.26806756244514,45.108014315235984L124.03719741758084,36.57068074592944L131.80632727271654,49.80856230728259L139.57545712785225,39.951869562878215L147.34458698298795,50.20419542685454L155.11371683812362,42.78919139959294L162.88284669325935,55.578928004032335L170.65197654839506,51.27425265183583L178.42110640353073,68.89229660892416L186.19023625866643,57.91529895960095L193.95936611380213,72.12634286163181L201.72849596893784,66.37103615922598L209.49762582407354,77.05939330803069L217.26675567920924,76.89010626377625L225.0358855343449,86.35195185703918L232.80501538948064,86.8205474037629L240.57414524461635,86.49740753663419L248.34327509975202,89.88098502604252L256.1124049548877,92.71244974101946L263.8815348100234,96.70620626292168L271.6506646651591,96.92512397885271L279.4197945202949,105.7828744608987L287.18892437543053,101.30158869629147L294.95805423056623,95.87097727557371L302.72718408570194,105.45071878464422L310.49631394083764,99.85168886128419L318.26544379597334,108.21379665258912L326.03457365110904,105.83835863607547L333.80370350624474,107.9296406292497L341.5728333613804,108.06614929989017L349.34196321651615,106.43190086233079L357.11109307165185,107.31670525465826L364.8802229267875,112.81183498692684L372.64935278192326,111.70361545211482L380.41848263705896,111.6981513733635L388.1876124921946,115.25983412294192L395.95674234733036,108.6262437935188L403.725872202466,114.68521191015782L411.49500205760165,119.64929842730763L419.2641319127374,119.11913864736259L427.03326176787306,115.19874180404545L434.80239162300876,120.60801633931236L442.5715214781445,118.53182363801037L450.34065133328016,120.47215966923012L458.10978118841587,122.5665529446186L465.8789110435516,117.63115764378198L473.64804089868727,121.60277888327394L481.417170753823,121.2756547121667L489.1863006089587,126.04880984649357L496.9554304640944,128.5792574301013L504.7245603192301,132.22576591900295L512.4936901743657,126.79310647721658L520.2628200295014,127.94873784832258L528.0319498846372,125.489613471913L535.8010797397728,122.60227891385442L543.5702095949085,121.04212330659603L551.3393394500442,128.56431814427174L559.1084693051799,127.54411562652295L566.8775991603156,126.75564968382415L574.6467290154513,127.17372280273202L582.415858870587,131.33715101414467L590.1849887257229,125.41481175543561L597.9541185808584,129.47885046716385L605.7232484359942,133.8267530815504L613.49237829113,134.42393620948377L621.2615081462656,126.24235411330854L629.0306380014013,128.24004259491434L636.7997678565371,130.92330482038267L644.5688977116727,131.18933810612592L652.3380275668084,132.18524804990582L660.1071574219442,130.87538552098016L667.8762872770798,133.0582883784445L675.6454171322155,131.43521138173764L683.4145469873511,131.20385967132233L691.1836768424869,133.0647127308247L698.9528066976226,128.68601134107726L706.7219365527582,131.3847321938377L714.491066407894,128.30380414857603L722.2601962630297,133.32591525697504L730.0293261181654,133.2047220345975L737.7984559733011,135.37651335951526L745.5675858284368,133.43222747469008L753.3367156835725,130.8786998172526L761.1058455387082,127.35094410179292L768.8749753938439,128.87430312502207L776.6441052489796,132.4668954131521L784.4132351041152,126.81384924314192L792.182364959251,140.92658263805222L799.9514948143867,149.9970169017583L807.7206246695223,137.12174251241566L815.4897545246581,137.1191577475278L823.2588843797938,131.6983582354106L831.0280142349294,129.05155607397887L838.7971440900652,130.7050688187382L846.5662739452009,127.52123836304683L854.3354038003365,127.10924649440635L862.1045336554723,127.00361543701128L869.873663510608,128.03665206961588L877.6427933657436,126.8191785284139L885.4119232208793,127.39208206677253L893.1810530760151,126.44210069010236L900.9501829311507,122.74804891730227L908.7193127862864,124.78797029157886L916.4884426414222,129.58592189869375L924.2575724965578,130.74179554888488L932.0267023516935,137.33174442475558L939.7958322068293,129.55841077049197L947.5649620619649,127.7805651858717L955.3340919171006,131.8930741574689L963.1032217722365,135.5826076916774L970.872351627372,137.04610199387815L978.6414814825077,133.17893504911996L986.4106113376434,136.19744796012017L994.1797411927791,131.7163569800616L1001.9488710479148,136.1474721040445L1009.7180009030506,135.07734586221764L1017.4871307581863,132.25657474949756L1025.256260613322,134.24432108211553" style="fill: none;" fill="none"></path></g><g><path stroke="rgb(204, 51, 17)" stroke-width="2px" d="M15.269379445681048,18.34704011583579L23.03850930081675,18.34704011583575L30.807639155952447,18.34704011583575L38.576769011088146,18.34704011583579L46.34589886622385,18.34704011583579L54.11502872135954,18.34704011583575L61.884158576495246,18.34704011583579L69.65328843163094,18.34704011583583L77.42241828676664,18.34704011583579L85.19154814190235,18.34704011583575L92.96067799703805,18.34704011583575L100.72980785217374,18.34704011583575L108.49893770730945,18.34704011583575L116.26806756244514,18.34704011583579L124.03719741758084,19.739674279023983L131.80632727271654,33.976417735403956L139.57545712785225,28.68744783147763L147.34458698298795,34.60506887950897L155.11371683812362,41.26081790713579L162.88284669325935,61.90257158591598L170.65197654839506,49.647284682165164L178.42110640353073,68.4601071325507L186.19023625866643,63.21264835453993L193.95936611380213,79.59368663544008L201.72849596893784,68.43480211457984L209.49762582407354,74.84731623645705L217.26675567920924,93.42051148314953L225.0358855343449,113.78513848161391L232.80501538948064,119.80524627207272L240.57414524461635,135.24913676632443L248.34327509975202,143.71427245622615L256.1124049548877,144.71842647207674L263.8815348100234,137.3604408626934L271.6506646651591,150.38351797108317L279.4197945202949,153.5777823057704L287.18892437543053,160.57196671098217L294.95805423056623,186.50476860059413L302.72718408570194,195.34048048546498L310.49631394083764,197.30186651922395L318.26544379597334,208.96928026489422L326.03457365110904,215.34109591292014L333.80370350624474,222.8040119034254L341.5728333613804,225.00014278699632L349.34196321651615,235.42294472028448L357.11109307165185,241.2344532338998L364.8802229267875,249.29736360415617L372.64935278192326,256.06627251627884L380.41848263705896,258.0733326694844L388.1876124921946,263.6007021614435L395.95674234733036,268.3914955270166L403.725872202466,274.6506615809572L411.49500205760165,277.45679521927025L419.2641319127374,278.6399115632679L427.03326176787306,282.81383170867605L434.80239162300876,284.1244950073246L442.5715214781445,285.2585028548503L450.34065133328016,288.2232901156723L458.10978118841587,291.4019714050243L465.8789110435516,293.99309762311987L473.64804089868727,297.1147085938019L481.417170753823,299.25206969474795L489.1863006089587,300.8546675225459L496.9554304640944,302.529685736811L504.7245603192301,302.48583492320705L512.4936901743657,303.22119326002564L520.2628200295014,305.2652177260586L528.0319498846372,306.6657917810044L535.8010797397728,308.36146777418077L543.5702095949085,309.1248041074402L551.3393394500442,310.50120409872346" style="fill: none;" fill="none"></path></g></g></g></g><g opacity="0.2"><g><g><g><path stroke="rgb(0, 119, 187)" stroke-width="2px" d="M15.269379445681048,18.34704011583579L23.03850930081675,18.34704011583579L30.807639155952447,18.34704011583579L38.576769011088146,18.34704011583579L46.34589886622385,18.34704011583579L54.11502872135954,29.11313053646466L61.884158576495246,18.34704011583579L69.65328843163094,18.34704011583579L77.42241828676664,28.134395043680232L85.19154814190235,31.7550844793761L92.96067799703805,18.580758880565114L100.72980785217374,64.26302029710367L108.49893770730945,22.482638301180685L116.26806756244514,63.45587680436983L124.03719741758084,23.77471570710103L131.80632727271654,69.65604826960579L139.57545712785225,25.171001468305114L147.34458698298795,65.58008115839269L155.11371683812362,31.66781495993215L162.88284669325935,74.76236387810569L170.65197654839506,44.817475702167705L178.42110640353073,95.31878281531576L186.19023625866643,41.45001920728614L193.95936611380213,93.44274037131504L201.72849596893784,57.738117011874024L209.49762582407354,93.091883450277L217.26675567920924,76.63617613055379L225.0358855343449,100.54470572077184L232.80501538948064,87.52344029220558L240.57414524461635,86.01269791453575L248.34327509975202,94.95635013812388L256.1124049548877,96.9596462501182L263.8815348100234,102.69684056900066L271.6506646651591,97.25350053706855L279.4197945202949,119.06949980329013L287.18892437543053,94.57966016493526L294.95805423056623,87.72506022851756L302.72718408570194,119.8203309593216L310.49631394083764,91.45314400742939L318.26544379597334,120.7569583116016L326.03457365110904,102.27520161606796L333.80370350624474,111.06656361649503L341.5728333613804,108.27091230575239L349.34196321651615,103.98052820669945L357.11109307165185,108.64391184291951L364.8802229267875,121.0545295844729L372.64935278192326,110.0412861500004L380.41848263705896,111.68995525523681L388.1876124921946,120.60235824718958L395.95674234733036,98.67585829951811L403.725872202466,123.77366408504287L411.49500205760165,127.09542820299626L419.2641319127374,118.32389897744741L427.03326176787306,109.31814653908002L434.80239162300876,128.72192814220418L442.5715214781445,115.4175345860594L450.34065133328016,123.3826637160586L458.10978118841587,125.70814285770074L465.8789110435516,110.22806469252805L473.64804089868727,127.56021074251134L481.417170753823,120.78496845550586L489.1863006089587,133.2085425479837L496.9554304640944,132.37492880551284L504.7245603192301,137.69552865235536L512.4936901743657,118.64411731453708L520.2628200295014,129.6821849049816L528.0319498846372,121.80092690729867L535.8010797397728,118.27127707676658L543.5702095949085,118.70188989570838L551.3393394500442,139.84761040078533L559.1084693051799,126.01381184989984L566.8775991603156,125.57295076977601L574.6467290154513,127.80083248109383L582.415858870587,137.58229333126363L590.1849887257229,116.53130286737199L597.9541185808584,135.57490853475628L605.7232484359942,140.34860700313018L613.49237829113,135.3197109013838L621.2615081462656,113.9699809690457L629.0306380014013,131.23657531732314L636.7997678565371,134.94819815858503L644.5688977116727,131.58838803474083L652.3380275668084,133.6791129655757L660.1071574219442,128.91059172759168L667.8762872770798,136.33264266464096L675.6454171322155,129.0005958866775L683.4145469873511,130.85683210569943L691.1836768424869,135.8559923200783L698.9528066976226,122.11795925645609L706.7219365527582,135.43281347297835L714.491066407894,123.68241208068359L722.2601962630297,140.85908191957353L730.0293261181654,133.0229322010312L737.7984559733011,138.63420034689187L745.5675858284368,130.51579864745247L753.3367156835725,127.04840833109624L761.1058455387082,122.05931052860339L768.8749753938439,131.1593416598657L776.6441052489796,137.8557838453471L784.4132351041152,118.33427998812662L792.182364959251,162.09568273041762L799.9514948143867,163.60266829731736L807.7206246695223,117.80883092840178L815.4897545246581,137.11528060019597L823.2588843797938,123.56715896723479L831.0280142349294,125.0813528318312L838.7971440900652,133.18533793587721L846.5662739452009,122.74549267950981L854.3354038003365,126.49125869144558L862.1045336554723,126.84516885091871L869.873663510608,129.58620701852286L877.6427933657436,124.99296821661095L885.4119232208793,128.25143737431048L893.1810530760151,125.0171286250971L900.9501829311507,117.206971258102L908.7193127862864,127.84785235299384L916.4884426414222,136.78284930936607L924.2575724965578,132.47560602417167L932.0267023516935,147.21666773856165L939.7958322068293,117.89841028909662L947.5649620619649,125.1137968089412L955.3340919171006,138.06183761486477L963.1032217722365,141.11690799299015L970.872351627372,139.24134344717928L978.6414814825077,127.37818463198263L986.4106113376434,140.7252173266205L994.1797411927791,124.9947205099737L1001.9488710479148,142.79414479001898L1009.7180009030506,133.47215649947722L1017.4871307581863,128.02541808041738L1025.256260613322,137.22594058104247" style="fill: none;" fill="none"></path></g><g><path stroke="rgb(204, 51, 17)" stroke-width="2px" d="M15.269379445681048,18.34704011583579L23.03850930081675,18.34704011583579L30.807639155952447,18.34704011583579L38.576769011088146,18.34704011583579L46.34589886622385,18.34704011583579L54.11502872135954,18.34704011583579L61.884158576495246,18.34704011583579L69.65328843163094,18.34704011583579L77.42241828676664,18.34704011583579L85.19154814190235,18.34704011583579L92.96067799703805,18.34704011583579L100.72980785217374,18.34704011583579L108.49893770730945,18.34704011583579L116.26806756244514,18.34704011583579L124.03719741758084,21.826988534624935L131.80632727271654,55.32149206547036L139.57545712785225,20.75623109039759L147.34458698298795,43.47999796821293L155.11371683812362,51.24342751220185L162.88284669325935,92.86331536603817L170.65197654839506,31.265026435598593L178.42110640353073,96.67872176419282L186.19023625866643,55.34156378944345L193.95936611380213,104.16505000777506L201.72849596893784,51.6965546458648L209.49762582407354,84.46606007282934L217.26675567920924,121.28025682947217L225.0358855343449,144.33204771481118L232.80501538948064,128.8354024123908L240.57414524461635,158.41496397209843L248.34327509975202,156.41197318394768L256.1124049548877,146.2246572960595L263.8815348100234,126.32346332701422L271.6506646651591,169.91813270085126L279.4197945202949,158.36917867052222L287.18892437543053,171.06324313844732L294.95805423056623,225.40397103378928L302.72718408570194,208.59404823074945L310.49631394083764,200.24394555893784L318.26544379597334,226.47040084440866L326.03457365110904,224.89881937218274L333.80370350624474,233.99838588020492L341.5728333613804,228.2943391107675L349.34196321651615,251.0571476157025L357.11109307165185,249.95171600281262L364.8802229267875,261.3917291582836L372.64935278192326,266.21963588382965L380.41848263705896,261.08392289918L388.1876124921946,271.89175639919614L395.95674234733036,275.5776855752795L403.725872202466,284.03941066179215L411.49500205760165,281.6659956767195L419.2641319127374,280.4145860792592L427.03326176787306,289.07471192677735L434.80239162300876,286.0904899552952L442.5715214781445,286.95951462613795L450.34065133328016,292.6704710069034L458.10978118841587,296.16999333905125L465.8789110435516,297.87978695026277L473.64804089868727,301.79712504982456L481.417170753823,302.4581113461668L489.1863006089587,303.2585642642429L496.9554304640944,305.04221305820863L504.7245603192301,302.4200587028011L512.4936901743657,304.32423076525356L520.2628200295014,308.33125442510794L528.0319498846372,308.766652863423L535.8010797397728,310.90498176394544L543.5702095949085,310.26980860732914L551.3393394500442,312.5658040856484" style="fill: none;" fill="none"></path></g></g></g></g></g></g><g transform="translate(39, 374)" clip-path="url(#clip_1)"><clipPath id="clip_1"><rect width="1072" height="26"></rect></clipPath><g><g><line x1="7.500249590545349" y1="0" x2="7.500249590545349" y2="5" style="visibility: inherit;" fill="rgb(0, 0, 0)" stroke="rgb(204, 204, 204)" stroke-width="1px"></line><line x1="85.19154814190235" y1="0" x2="85.19154814190235" y2="5" style="visibility: inherit;" fill="rgb(0, 0, 0)" stroke="rgb(204, 204, 204)" stroke-width="1px"></line><line x1="162.88284669325935" y1="0" x2="162.88284669325935" y2="5" style="visibility: inherit;" fill="rgb(0, 0, 0)" stroke="rgb(204, 204, 204)" stroke-width="1px"></line><line x1="240.57414524461635" y1="0" x2="240.57414524461635" y2="5" style="visibility: inherit;" fill="rgb(0, 0, 0)" stroke="rgb(204, 204, 204)" stroke-width="1px"></line><line x1="318.26544379597334" y1="0" x2="318.26544379597334" y2="5" style="visibility: inherit;" fill="rgb(0, 0, 0)" stroke="rgb(204, 204, 204)" stroke-width="1px"></line><line x1="395.95674234733036" y1="0" x2="395.95674234733036" y2="5" style="visibility: inherit;" fill="rgb(0, 0, 0)" stroke="rgb(204, 204, 204)" stroke-width="1px"></line><line x1="473.64804089868727" y1="0" x2="473.64804089868727" y2="5" style="visibility: inherit;" fill="rgb(0, 0, 0)" stroke="rgb(204, 204, 204)" stroke-width="1px"></line><line x1="551.3393394500442" y1="0" x2="551.3393394500442" y2="5" style="visibility: inherit;" fill="rgb(0, 0, 0)" stroke="rgb(204, 204, 204)" stroke-width="1px"></line><line x1="629.0306380014013" y1="0" x2="629.0306380014013" y2="5" style="visibility: inherit;" fill="rgb(0, 0, 0)" stroke="rgb(204, 204, 204)" stroke-width="1px"></line><line x1="706.7219365527582" y1="0" x2="706.7219365527582" y2="5" style="visibility: inherit;" fill="rgb(0, 0, 0)" stroke="rgb(204, 204, 204)" stroke-width="1px"></line><line x1="784.4132351041152" y1="0" x2="784.4132351041152" y2="5" style="visibility: inherit;" fill="rgb(0, 0, 0)" stroke="rgb(204, 204, 204)" stroke-width="1px"></line><line x1="862.1045336554723" y1="0" x2="862.1045336554723" y2="5" style="visibility: inherit;" fill="rgb(0, 0, 0)" stroke="rgb(204, 204, 204)" stroke-width="1px"></line><line x1="939.7958322068293" y1="0" x2="939.7958322068293" y2="5" style="visibility: inherit;" fill="rgb(0, 0, 0)" stroke="rgb(204, 204, 204)" stroke-width="1px"></line><line x1="1017.4871307581863" y1="0" x2="1017.4871307581863" y2="5" style="visibility: inherit;" fill="rgb(0, 0, 0)" stroke="rgb(204, 204, 204)" stroke-width="1px"></line></g><g transform="translate(0, 8)"><text x="7.500249590545349" y="0" dx="0em" dy="0.95em" style="text-anchor: middle; visibility: inherit; font-family: Roboto, sans-serif; font-size: 12px; font-weight: 200;" fill="rgb(50, 49, 63)" stroke="none" stroke-width="1px">0</text><text x="85.19154814190235" y="0" dx="0em" dy="0.95em" style="text-anchor: middle; visibility: inherit; font-family: Roboto, sans-serif; font-size: 12px; font-weight: 200;" fill="rgb(50, 49, 63)" stroke="none" stroke-width="1px">100k</text><text x="162.88284669325935" y="0" dx="0em" dy="0.95em" style="text-anchor: middle; visibility: inherit; font-family: Roboto, sans-serif; font-size: 12px; font-weight: 200;" fill="rgb(50, 49, 63)" stroke="none" stroke-width="1px">200k</text><text x="240.57414524461635" y="0" dx="0em" dy="0.95em" style="text-anchor: middle; visibility: inherit; font-family: Roboto, sans-serif; font-size: 12px; font-weight: 200;" fill="rgb(50, 49, 63)" stroke="none" stroke-width="1px">300k</text><text x="318.26544379597334" y="0" dx="0em" dy="0.95em" style="text-anchor: middle; visibility: inherit; font-family: Roboto, sans-serif; font-size: 12px; font-weight: 200;" fill="rgb(50, 49, 63)" stroke="none" stroke-width="1px">400k</text><text x="395.95674234733036" y="0" dx="0em" dy="0.95em" style="text-anchor: middle; visibility: inherit; font-family: Roboto, sans-serif; font-size: 12px; font-weight: 200;" fill="rgb(50, 49, 63)" stroke="none" stroke-width="1px">500k</text><text x="473.64804089868727" y="0" dx="0em" dy="0.95em" style="text-anchor: middle; visibility: inherit; font-family: Roboto, sans-serif; font-size: 12px; font-weight: 200;" fill="rgb(50, 49, 63)" stroke="none" stroke-width="1px">600k</text><text x="551.3393394500442" y="0" dx="0em" dy="0.95em" style="text-anchor: middle; visibility: inherit; font-family: Roboto, sans-serif; font-size: 12px; font-weight: 200;" fill="rgb(50, 49, 63)" stroke="none" stroke-width="1px">700k</text><text x="629.0306380014013" y="0" dx="0em" dy="0.95em" style="text-anchor: middle; visibility: inherit; font-family: Roboto, sans-serif; font-size: 12px; font-weight: 200;" fill="rgb(50, 49, 63)" stroke="none" stroke-width="1px">800k</text><text x="706.7219365527582" y="0" dx="0em" dy="0.95em" style="text-anchor: middle; visibility: inherit; font-family: Roboto, sans-serif; font-size: 12px; font-weight: 200;" fill="rgb(50, 49, 63)" stroke="none" stroke-width="1px">900k</text><text x="784.4132351041152" y="0" dx="0em" dy="0.95em" style="text-anchor: middle; visibility: inherit; font-family: Roboto, sans-serif; font-size: 12px; font-weight: 200;" fill="rgb(50, 49, 63)" stroke="none" stroke-width="1px">1M</text><text x="862.1045336554723" y="0" dx="0em" dy="0.95em" style="text-anchor: middle; visibility: inherit; font-family: Roboto, sans-serif; font-size: 12px; font-weight: 200;" fill="rgb(50, 49, 63)" stroke="none" stroke-width="1px">1.1M</text><text x="939.7958322068293" y="0" dx="0em" dy="0.95em" style="text-anchor: middle; visibility: inherit; font-family: Roboto, sans-serif; font-size: 12px; font-weight: 200;" fill="rgb(50, 49, 63)" stroke="none" stroke-width="1px">1.2M</text><text x="1017.4871307581863" y="0" dx="0em" dy="0.95em" style="text-anchor: middle; visibility: inherit; font-family: Roboto, sans-serif; font-size: 12px; font-weight: 200;" fill="rgb(50, 49, 63)" stroke="none" stroke-width="1px">1.3M</text></g><line x1="0" y1="0" x2="1072.29375" y2="0" fill="rgb(0, 0, 0)" stroke="rgb(204, 204, 204)" stroke-width="1px"></line></g></g></g></g></svg>